<svg xmlns="http://www.w3.org/2000/svg" width="119.667" height="45.92" viewBox="0 0 119.667 45.92">
  <g id="Digital-India-white" transform="translate(-8.373 -24.058)">
    <path id="Path_19172" data-name="Path 19172" d="M13.661,73.422l-.491-.5a4.818,4.818,0,0,1,6.869,0l-.5.478a4.124,4.124,0,0,0-5.859,0m1.731,1.659-.451-.451a2.348,2.348,0,0,1,3.371,0l-.451.451a1.753,1.753,0,0,0-1.221-.5,1.7,1.7,0,0,0-1.221.5m1.221,1.208-.874-.856a1.352,1.352,0,0,1,.874-.37,1.294,1.294,0,0,1,.865.37Zm0-2.867a2.776,2.776,0,0,1,2.037.865l.545-.545a3.606,3.606,0,0,0-5.183,0l.541.55a2.821,2.821,0,0,1,2.055-.87" transform="translate(-2.635 -26.052)" fill="#0e6eb6" fill-rule="evenodd"/>
    <path id="Path_19173" data-name="Path 19173" d="M10.724,83.42h6.423c-4.606,11.651-5.409,18.479-.735,18.3-10.254.6-8.924-9.357-5.683-18.3" transform="translate(0 -32.607)" fill="#0e6eb6" fill-rule="evenodd"/>
    <path id="Path_19174" data-name="Path 19174" d="M26.69,32.942C32.549,23.4,42.05,22.423,48.82,25.9c7.509,3.863,9.825,12.8,7.955,20.67A30.587,30.587,0,0,1,31.9,69.4a20.169,20.169,0,0,0,8.843-5.8,27.214,27.214,0,0,0,3.808-5.287c3.457-4.66,5.057-9.226,5.17-13.2.225-5.332-2.1-10.623-7-13.071-4.264-2.168-10.006-2.055-16.041.9" transform="translate(-10.061)" fill="#f26329" fill-rule="evenodd"/>
    <path id="Path_19175" data-name="Path 19175" d="M16.475,57.4c4.778-9.465,14.617-10.127,20.413-6.03a11.362,11.362,0,0,1,4.507,6.761,18.255,18.255,0,0,1-1.1,10.524,26.312,26.312,0,0,1-5.341,8.64c-3.3,3.646-8.023,6.427-13.071,6.373a11.173,11.173,0,0,1-5.738-1.55c2.384,1.149,6.094.744,8.361-.162a17.938,17.938,0,0,0,8.64-8.248c2.321-4.318,4.151-11.268.451-15.248-3.358-3.7-10.055-4.958-17.127-1.064" transform="translate(-4.272 -13.69)" fill="#09a14a" fill-rule="evenodd"/>
    <path id="Path_19176" data-name="Path 19176" d="M175.281,69.616l1.136-3.259h-.4a2.574,2.574,0,0,0-1.916.744,3.525,3.525,0,0,0-.983,1.825,1.447,1.447,0,0,0,.032.96.644.644,0,0,0,.622.352,2.637,2.637,0,0,0,1.514-.6m3.606-4.728-2.38,6.68h-1.934l.221-.636a3.547,3.547,0,0,1-2.037.771,1.564,1.564,0,0,1-1.447-.825,2.857,2.857,0,0,1-.185-2.109A5,5,0,0,1,173,65.812a5.756,5.756,0,0,1,3.727-1.158,9.145,9.145,0,0,1,2.136.23M170.99,64.8l-2.411,6.792h-1.934l2.42-6.792Zm-1.316-1.9a1.289,1.289,0,0,1,1.212-1.041.793.793,0,0,1,.645.3.838.838,0,0,1,.135.739,1.415,1.415,0,0,1-.451.762,1.257,1.257,0,0,1-.784.288.8.8,0,0,1-.635-.288.9.9,0,0,1-.113-.762m-6.062,7.094,1.239-3.529a2.822,2.822,0,0,0-.482-.036,2.745,2.745,0,0,0-1.753.586,2.547,2.547,0,0,0-.937,1.465,1.321,1.321,0,0,0,.212,1.163,1.451,1.451,0,0,0,1.172.451,3.082,3.082,0,0,0,.55-.081m4.958-8.64-3.565,10.145a13.833,13.833,0,0,1-2.276.23,3.3,3.3,0,0,1-2.56-.9,2.5,2.5,0,0,1-.482-2.375,4.705,4.705,0,0,1,1.677-2.7,4.773,4.773,0,0,1,3.155-1.109,7.614,7.614,0,0,1,.928.072l1.185-3.376Zm-13.2,3.43-.293.762a4.368,4.368,0,0,1,2.416-.9,1.248,1.248,0,0,1,1.158.554,2.015,2.015,0,0,1,.113,1.541,4.881,4.881,0,0,1-.167.608l-1.483,4.232H155.2l1.429-4.056a1.6,1.6,0,0,0,.117-.356c.135-.672,0-1-.392-1a3.381,3.381,0,0,0-1.843,1.046L152.966,71.6h-1.934l2.416-6.806Zm-2.749-3.43-3.606,10.24h-2.082l3.606-10.24Zm-8.023,0L141,71.608h-1.916l3.606-10.24Zm-8.563,8.266,1.127-3.259h-.4a2.556,2.556,0,0,0-1.906.744,3.534,3.534,0,0,0-.992,1.785,1.352,1.352,0,0,0,.041.96.631.631,0,0,0,.613.352,2.7,2.7,0,0,0,1.519-.6m3.606-4.728-2.366,6.7h-1.925l.225-.636a3.606,3.606,0,0,1-2.033.771,1.582,1.582,0,0,1-1.483-.82,2.93,2.93,0,0,1-.185-2.109,4.985,4.985,0,0,1,1.875-2.979,5.778,5.778,0,0,1,3.736-1.158,9.18,9.18,0,0,1,2.132.23m-8.374-1.541-.568,1.451h1.42l-.581,1.487H130.1L129.25,68.5a2.357,2.357,0,0,0-.162.523c-.14.608,0,.9.392.9a3.385,3.385,0,0,0,1.194-.41l-.392,1.8a4.1,4.1,0,0,1-1.749.451,1.541,1.541,0,0,1-1.352-.626A2.123,2.123,0,0,1,127,69.5c.059-.194.117-.392.185-.59l1.032-2.6h-1.307l.568-1.487h1.316l.545-1.438Zm-4.71,1.451-2.407,6.792h-1.925l2.4-6.792Zm-1.33-1.9a1.375,1.375,0,0,1,.451-.739,1.253,1.253,0,0,1,.78-.3.793.793,0,0,1,.649.3.928.928,0,0,1,.135.739,1.532,1.532,0,0,1-.451.762,1.3,1.3,0,0,1-.78.288.762.762,0,0,1-.636-.288.9.9,0,0,1-.135-.762m-6.287,10.2c.063-.315-.194-.55-.762-.672l-.807-.194a2.118,2.118,0,0,0-.766.194.847.847,0,0,0-.6.608c-.1.478.325.708,1.28.708a3.606,3.606,0,0,0,1.185-.149.672.672,0,0,0,.451-.5m-.081-4.507c.7,0,1.149-.5,1.352-1.469a.9.9,0,0,0-.077-.708.694.694,0,0,0-.6-.261c-.7,0-1.167.491-1.4,1.5-.131.617.1.942.712.942m4.683-3.79-.514,1.487h-1.032a2.831,2.831,0,0,1,0,1.091,3.087,3.087,0,0,1-1.122,1.767,3.353,3.353,0,0,1-2.141.717,4.647,4.647,0,0,0-.9.063.37.37,0,0,0-.329.306c-.023.081,0,.153.126.243a8.856,8.856,0,0,0,1.352.288,2.467,2.467,0,0,1,1.614.73,1.541,1.541,0,0,1,.252,1.352c-.32,1.469-1.6,2.217-3.836,2.217a4.137,4.137,0,0,1-2.208-.451,1.1,1.1,0,0,1-.527-1.248c.149-.649.789-1.176,1.934-1.519a1.109,1.109,0,0,1-.617-1.266q.21-.946,1.582-1.253a1.776,1.776,0,0,1-.7-1.965,3.155,3.155,0,0,1,1.212-1.8A3.452,3.452,0,0,1,119.9,64.8Zm-7.662,0-2.407,6.81h-1.925l2.375-6.81Zm-1.352-1.9a1.384,1.384,0,0,1,.451-.739,1.266,1.266,0,0,1,.771-.3.82.82,0,0,1,.649.3.843.843,0,0,1,.122.739,1.515,1.515,0,0,1-.451.762,1.262,1.262,0,0,1-.789.288.775.775,0,0,1-.631-.288.987.987,0,0,1-.135-.762m-8.487.176-2.38,6.824h1.938a3.633,3.633,0,0,0,2.61-1.041A4.75,4.75,0,0,0,109.59,66.3a2.767,2.767,0,0,0-.374-2.348,2.61,2.61,0,0,0-2.208-.9Zm-1.456-1.7h3.236a3.912,3.912,0,0,1,3.439,1.388,4.406,4.406,0,0,1,.509,3.606,6.973,6.973,0,0,1-2.145,3.759,5.2,5.2,0,0,1-3.606,1.5H100.95Z" transform="translate(-50.852 -20.484)" fill="#fff"/>
    <path id="Path_19177" data-name="Path 19177" d="M101.948,95.97h1.113a1.587,1.587,0,0,0,1.014-.325,1.046,1.046,0,0,0,.356-.847,1.077,1.077,0,0,0-.356-.861,1.492,1.492,0,0,0-1.014-.311h-1.113Zm0,.617v2.605h-.658V93h1.627a2.65,2.65,0,0,1,1.623.451,1.636,1.636,0,0,1,.6,1.352,1.6,1.6,0,0,1-.6,1.316,2.565,2.565,0,0,1-1.623.478Z" transform="translate(-51.038 -37.865)" fill="#fff" fill-rule="evenodd"/>
    <path id="Path_19178" data-name="Path 19178" d="M113.051,100.71a1.442,1.442,0,0,0,1.082-.451,1.6,1.6,0,0,0,.451-1.145,1.555,1.555,0,0,0-.451-1.14,1.424,1.424,0,0,0-1.082-.487,1.406,1.406,0,0,0-1.1.487,1.568,1.568,0,0,0-.451,1.14,1.613,1.613,0,0,0,.451,1.145,1.424,1.424,0,0,0,1.1.451m0,.613a2.055,2.055,0,0,1-1.564-.626,2.4,2.4,0,0,1,0-3.214,2.231,2.231,0,0,1,3.123,0,2.42,2.42,0,0,1,0,3.214,2.051,2.051,0,0,1-1.555.626" transform="translate(-56.3 -39.981)" fill="#fff" fill-rule="evenodd"/>
    <path id="Path_19179" data-name="Path 19179" d="M123.9,100.1l1.217-3.434h.4l1.239,3.43,1.3-3.367h.6l-1.74,4.485h-.4L125.3,97.855l-1.23,3.362h-.392l-1.74-4.485h.667Z" transform="translate(-62.381 -39.885)" fill="#fff" fill-rule="evenodd"/>
    <path id="Path_19180" data-name="Path 19180" d="M141.131,98.518a1.4,1.4,0,0,0-.288-.645,1.154,1.154,0,0,0-.956-.419,1.212,1.212,0,0,0-.9.451,2.028,2.028,0,0,0-.311.617Zm-2.547.532h0a1.555,1.555,0,0,0,.473,1.127,1.528,1.528,0,0,0,1.14.478,2.2,2.2,0,0,0,.766-.135,2.785,2.785,0,0,0,.721-.424l.144-.122v.694h-.045a2.52,2.52,0,0,1-.757.451,2.443,2.443,0,0,1-2.443-.478,2.159,2.159,0,0,1-.626-1.6,2.389,2.389,0,0,1,.541-1.614,1.753,1.753,0,0,1,1.393-.631,1.8,1.8,0,0,1,1.438.59,2.375,2.375,0,0,1,.5,1.528v.09Z" transform="translate(-71.178 -39.953)" fill="#fff" fill-rule="evenodd"/>
    <path id="Path_19181" data-name="Path 19181" d="M150.236,97.393a1.352,1.352,0,0,1,1.857-.536.045.045,0,0,1,.041.032v.7c-.041-.023,0,0-.054,0a1.241,1.241,0,0,0-1.843.8v2.821h-.626V96.707h.626Z" transform="translate(-77.58 -39.891)" fill="#fff" fill-rule="evenodd"/>
    <path id="Path_19182" data-name="Path 19182" d="M162.948,93.748H160.96V93.18H165.6v.568h-1.988v5.485h-.667Z" transform="translate(-83.815 -37.968)" fill="#fff" fill-rule="evenodd"/>
    <path id="Path_19183" data-name="Path 19183" d="M188.573,93.93v1.979h2.515v.586h-2.515v2.213h2.984v.59H187.91V93.34h3.529v.59Z" transform="translate(-98.618 -38.056)" fill="#fff" fill-rule="evenodd"/>
    <path id="Path_19184" data-name="Path 19184" d="M199.231,97.332a1.6,1.6,0,0,1,1.248-.6,1.546,1.546,0,0,1,1.176.478,1.879,1.879,0,0,1,.257.352l.09-.149a1.69,1.69,0,0,1,1.33-.685,1.537,1.537,0,0,1,1.176.478,1.668,1.668,0,0,1,.451,1.221V101.1h-.654V98.455a1.131,1.131,0,0,0-.284-.807.924.924,0,0,0-.753-.306,1.253,1.253,0,0,0-.946.5,1.407,1.407,0,0,0-.216.279v2.97h-.654V98.455a1.113,1.113,0,0,0-.284-.807.946.946,0,0,0-.753-.306,1.28,1.28,0,0,0-.956.5,2.779,2.779,0,0,0-.221.279v2.97h-.64V96.814h.631Z" transform="translate(-104.49 -39.916)" fill="#fff" fill-rule="evenodd"/>
    <path id="Path_19185" data-name="Path 19185" d="M215.81,96.822h.654v.541a1.091,1.091,0,0,1,.608-.482,2.159,2.159,0,0,1,2.3.451,2.569,2.569,0,0,1,.023,3.25,2.283,2.283,0,0,1-2.871.167l-.063-.041v2.087h-.654Zm2.632.78a1.431,1.431,0,0,0-1.965.581v1.744a1.563,1.563,0,0,0,2.087.365,1.713,1.713,0,0,0-.122-2.7" transform="translate(-113.943 -39.916)" fill="#fff"/>
    <rect id="Rectangle_4757" data-name="Rectangle 4757" width="12.349" height="0.712" transform="translate(48.769 52.134)" fill="#fff"/>
    <rect id="Rectangle_4758" data-name="Rectangle 4758" width="56.185" height="0.712" transform="translate(71.061 52.134)" fill="#fff"/>
    <path id="Path_19186" data-name="Path 19186" d="M172.539,100.451A1.411,1.411,0,0,0,173.62,100a1.618,1.618,0,0,0,.451-1.14,1.659,1.659,0,0,0-.451-1.149,1.352,1.352,0,0,0-1.082-.451,1.415,1.415,0,0,0-1.091.451A1.618,1.618,0,0,0,171,98.86a1.582,1.582,0,0,0,.451,1.14,1.46,1.46,0,0,0,1.091.451m0,.617a2.1,2.1,0,0,1-1.564-.626,2.2,2.2,0,0,1-.617-1.6,2.172,2.172,0,0,1,.617-1.618,2.078,2.078,0,0,1,1.564-.635,2.037,2.037,0,0,1,1.555.635,2.19,2.19,0,0,1,.626,1.6,2.222,2.222,0,0,1-.626,1.6,2.1,2.1,0,0,1-1.555.626" transform="translate(-88.975 -39.839)" fill="#fff" fill-rule="evenodd"/>
    <path id="Path_19187" data-name="Path 19187" d="M228.983,100.451a1.447,1.447,0,0,0,1.082-.451,1.609,1.609,0,0,0,.451-1.14,1.65,1.65,0,0,0-.451-1.149,1.487,1.487,0,0,0-2.168,0,1.591,1.591,0,0,0-.451,1.149A1.555,1.555,0,0,0,227.9,100a1.447,1.447,0,0,0,1.082.451m0,.617a2.064,2.064,0,0,1-1.564-.626,2.182,2.182,0,0,1-.617-1.6,2.15,2.15,0,0,1,.626-1.618,2.051,2.051,0,0,1,1.564-.636,2.082,2.082,0,0,1,1.564.636,2.227,2.227,0,0,1,.608,1.6,2.254,2.254,0,0,1-.608,1.6,2.1,2.1,0,0,1-1.564.626" transform="translate(-119.977 -39.839)" fill="#fff" fill-rule="evenodd"/>
    <path id="Path_19188" data-name="Path 19188" d="M239.852,100.2l1.221-3.452h.41l1.221,3.443,1.3-3.371h.622l-1.74,4.476h-.4l-1.226-3.353-1.221,3.353h-.4l-1.74-4.476h.658Z" transform="translate(-126.077 -39.929)" fill="#fff" fill-rule="evenodd"/>
    <path id="Path_19189" data-name="Path 19189" d="M257.126,98.523a1.352,1.352,0,0,0-.288-.645,1.145,1.145,0,0,0-.951-.419,1.163,1.163,0,0,0-.9.451,1.749,1.749,0,0,0-.311.617Zm-2.542.532h0a1.546,1.546,0,0,0,.473,1.127,1.528,1.528,0,0,0,1.131.478,2.253,2.253,0,0,0,.766-.135,2.411,2.411,0,0,0,.712-.424l.158-.122v.694h-.032a2.618,2.618,0,0,1-.771.451,2.452,2.452,0,0,1-2.452-.478,2.19,2.19,0,0,1-.622-1.6,2.447,2.447,0,0,1,.536-1.614,1.943,1.943,0,0,1,2.83-.036,2.371,2.371,0,0,1,.5,1.528v.09Z" transform="translate(-134.891 -39.957)" fill="#fff" fill-rule="evenodd"/>
    <path id="Path_19190" data-name="Path 19190" d="M266.231,97.312a1.352,1.352,0,0,1,1.843-.523.069.069,0,0,1,.05.023v.73c-.054-.059,0,0-.054-.032a1.241,1.241,0,0,0-1.843.793v2.821H265.6V96.636h.631Z" transform="translate(-141.292 -39.856)" fill="#fff" fill-rule="evenodd"/>
  </g>
</svg>
