<svg xmlns="http://www.w3.org/2000/svg" xmlns:xlink="http://www.w3.org/1999/xlink" width="109.618" height="41.37" viewBox="0 0 109.618 41.37">
  <defs>
    <clipPath id="clip-path">
      <rect id="Rectangle_4772" data-name="Rectangle 4772" width="109.618" height="41.37" fill="#fff"/>
    </clipPath>
  </defs>
  <g id="s3waaslogo" clip-path="url(#clip-path)">
    <path id="Path_19258" data-name="Path 19258" d="M36.1,40.69l-.271.19a6.486,6.486,0,0,1-3.036,1.152c-.253.029-.5.046-.755.052h-2.3a6.613,6.613,0,0,1-6.394-5.207A7.271,7.271,0,0,1,23.2,35.3V16.082a.426.426,0,0,1,.334-.063h4.6v19.55a1.647,1.647,0,0,0,1.619,1.6h2.241a1.63,1.63,0,0,0,1.636-1.613V16.462a1.925,1.925,0,0,1,0-.409l.04-.035h4.856a.693.693,0,0,1,.035.184V35.189a4.538,4.538,0,0,0,.04.628,1.607,1.607,0,0,0,1.538,1.342H42.47a1.63,1.63,0,0,0,1.573-1.532V16.065A.507.507,0,0,1,44.411,16h4.562V35.2a7.742,7.742,0,0,1-.248,2.056,6.6,6.6,0,0,1-4.764,4.654,6.209,6.209,0,0,1-1.532.2H40.062a6.474,6.474,0,0,1-3.652-1.152l-.323-.225h-.063" transform="translate(-1.871 -1.29)" fill="#fff" fill-rule="evenodd"/>
    <path id="Path_19259" data-name="Path 19259" d="M100.6,42.232v-4.81a.9.9,0,0,1,.029-.109,1.8,1.8,0,0,1,.184,0h9.43a1.727,1.727,0,0,0,1.152-.409,3.606,3.606,0,0,0-.2-5.76,1.306,1.306,0,0,0-.829-.265h-3.2a7.406,7.406,0,0,1-4.953-1.924A7.313,7.313,0,0,1,99.778,24.5a7.54,7.54,0,0,1,5.363-8.439,7.978,7.978,0,0,1,2.212-.305h8.179a1.013,1.013,0,0,1,0,.167v4.608a.754.754,0,0,1,0,.144.685.685,0,0,1-.184.035H107.48a3.728,3.728,0,0,0-.91.092,2.6,2.6,0,0,0-1.947,2.748,2.563,2.563,0,0,0,2.171,2.356,3.663,3.663,0,0,0,.576.046h3.923a2.3,2.3,0,0,1,.835.156,8.548,8.548,0,0,1,.121,15.962,2.88,2.88,0,0,1-1.025.2H100.6" transform="translate(-8.041 -1.271)" fill="#fff" fill-rule="evenodd"/>
    <path id="Path_19260" data-name="Path 19260" d="M66.946,29.834a13.465,13.465,0,0,0,0-1.93,3.312,3.312,0,0,0-2.529-2.725,4.077,4.077,0,0,0-.951-.081H56.508a.689.689,0,0,1-.115,0c-.046-.259-.052-3.076,0-3.416a.827.827,0,0,1,.179-.029h7.056A6.814,6.814,0,0,1,70.4,27.593a7.482,7.482,0,0,1,.058,1.02V38.8a.974.974,0,0,0,.806.841,3.471,3.471,0,0,0,.426,0h2.414l.04.052v3.347a1.076,1.076,0,0,1-.19,0H70.431a3.554,3.554,0,0,1-3.376-2.782l-.075-.311c-.282.271-.536.53-.806.76a7.711,7.711,0,0,1-2.805,1.55,6.969,6.969,0,0,1-1.025.236,9.713,9.713,0,0,1-1.077.092,7.627,7.627,0,0,1-1.089-.058,7.1,7.1,0,0,1-1.031-.2,8.3,8.3,0,0,1-1.025-.351,7.67,7.67,0,0,1-.968-.5,6.787,6.787,0,0,1-.858-.576,8.092,8.092,0,0,1-.8-.737,7.7,7.7,0,0,1-.207-10.259,7.411,7.411,0,0,1,1.382-1.267,7.331,7.331,0,0,1,1.647-.887,7.531,7.531,0,0,1,1.809-.467,7.82,7.82,0,0,1,1.907,0,7.317,7.317,0,0,1,1.82.444,7.593,7.593,0,0,1,1.665.9,10.516,10.516,0,0,1,1.429,1.21Zm-5.818.91a4.217,4.217,0,1,0,1.618.313A4.229,4.229,0,0,0,61.128,30.744Z" transform="translate(-4.31 -1.747)" fill="#fff" fill-rule="evenodd"/>
    <path id="Path_19261" data-name="Path 19261" d="M89.74,29.814c-.029-.634.04-1.273-.046-1.907a3.306,3.306,0,0,0-2.563-2.73,3.767,3.767,0,0,0-.847-.075H79.492a.662.662,0,0,1-.363-.04.411.411,0,0,1,0-.121V21.664l.2-.035H86.41A6.8,6.8,0,0,1,93.2,28.507v9.827a3.433,3.433,0,0,0,0,.426.956.956,0,0,0,.824.858,3.05,3.05,0,0,0,.4,0h2.448a1.677,1.677,0,0,1,0,.2v3.2c-.1.092-.213.058-.323.058H93.2a3.566,3.566,0,0,1-3.4-2.84,2.166,2.166,0,0,0-.058-.225c-.121,0-.167.115-.23.184a7.7,7.7,0,1,1,0-10.564l.179.179.063-.029ZM83.9,30.7a4.216,4.216,0,1,0,1.618.313A4.229,4.229,0,0,0,83.9,30.7Z" transform="translate(-6.147 -1.745)" fill="#fff" fill-rule="evenodd"/>
    <path id="Path_19262" data-name="Path 19262" d="M12.58,32.656a5.342,5.342,0,0,1,1.313.075,8.34,8.34,0,0,1,3.923,1.682,8.541,8.541,0,0,1,1.509,1.515.529.529,0,0,1,.115.392,8.56,8.56,0,0,1-5.53,7.529,2.246,2.246,0,0,1-.8.156H2.793a1.229,1.229,0,0,1-.386,0c-.058-.282-.086-3.2-.04-4.689a1.372,1.372,0,0,1,.035-.236h9.62A1.607,1.607,0,0,0,13.11,38.7a3.508,3.508,0,0,0,1.365-3.093,3.456,3.456,0,0,0-1.469-2.65c-.121-.092-.253-.161-.438-.282" transform="translate(-0.189 -2.633)" fill="#fff" fill-rule="evenodd"/>
    <path id="Path_19263" data-name="Path 19263" d="M8.246,25.524A12.488,12.488,0,0,1,1.4,23.006a3.664,3.664,0,0,1,0-.835,7.569,7.569,0,0,1,6.129-6.618,7.193,7.193,0,0,1,1.29-.127h8.416a.524.524,0,0,1,.052.357v4.562H9.029a2.845,2.845,0,0,0-1.094.207,2.621,2.621,0,0,0,0,4.821l.3.127" transform="translate(-0.111 -1.244)" fill="#fff" fill-rule="evenodd"/>
    <path id="Path_19264" data-name="Path 19264" d="M1.4,24.021l.259.167a12.718,12.718,0,0,0,4.5,2.051,10.372,10.372,0,0,0,2.01.311c.444,0,.881.046,1.319.046h3.134a4.111,4.111,0,0,1,1.78.392,8.531,8.531,0,0,1,4.821,6.135,9.279,9.279,0,0,1,.161,1.538,1.3,1.3,0,0,1,0,.265c-.1-.109-.161-.179-.219-.253a8.445,8.445,0,0,0-6.688-3.134H8.95a7.2,7.2,0,0,1-3.064-.668A7.488,7.488,0,0,1,1.56,25.444a5.761,5.761,0,0,1-.132-1.434" transform="translate(-0.113 -1.937)" fill="#fdb913" fill-rule="evenodd"/>
    <path id="Path_19265" data-name="Path 19265" d="M92.58,17.8l-1.008,2.517a.933.933,0,0,1-.167-.035,7.972,7.972,0,0,0-2.84-.5H79.337a.755.755,0,0,1-.04-.369V14a3.56,3.56,0,0,1,.7,0h1.354a6.645,6.645,0,0,1,.674,0v3a.576.576,0,0,0,.328.046h6.44a10,10,0,0,1,3.456.639l.277.121" transform="translate(-6.396 -1.128)" fill="#fdb913" fill-rule="evenodd"/>
    <path id="Path_19266" data-name="Path 19266" d="M79.066,10.7a1.763,1.763,0,0,1,1.786-1.78,1.791,1.791,0,1,1,0,3.583,1.728,1.728,0,0,1-1.791-1.8" transform="translate(-6.377 -0.72)" fill="#fdb913" fill-rule="evenodd"/>
    <path id="Path_19267" data-name="Path 19267" d="M1.84,11.531V6.182H3.488a1.721,1.721,0,0,1,.872.209,1.431,1.431,0,0,1,.562.572,1.837,1.837,0,0,1,0,1.651,1.448,1.448,0,0,1-.562.575,1.715,1.715,0,0,1-.87.209H2.07v-.3H3.483a1.4,1.4,0,0,0,.705-.167,1.159,1.159,0,0,0,.449-.462,1.533,1.533,0,0,0,0-1.35,1.132,1.132,0,0,0-.452-.462,1.4,1.4,0,0,0-.705-.167H2.166v5.046Z" transform="translate(-0.148 -0.499)" fill="#fff"/>
    <path id="Path_19268" data-name="Path 19268" d="M8.072,11.726a1.518,1.518,0,0,1-.883-.266,1.829,1.829,0,0,1-.609-.739,2.694,2.694,0,0,1,0-2.142A1.829,1.829,0,0,1,7.19,7.84a1.583,1.583,0,0,1,1.766,0,1.829,1.829,0,0,1,.609.739,2.694,2.694,0,0,1,0,2.142,1.829,1.829,0,0,1-.609.739A1.518,1.518,0,0,1,8.072,11.726Zm0-.3a1.18,1.18,0,0,0,.734-.238,1.536,1.536,0,0,0,.488-.643,2.4,2.4,0,0,0,0-1.8,1.566,1.566,0,0,0-.488-.642,1.241,1.241,0,0,0-1.468,0,1.566,1.566,0,0,0-.488.642,2.229,2.229,0,0,0-.175.9,2.277,2.277,0,0,0,.172.9,1.565,1.565,0,0,0,.488.643A1.191,1.191,0,0,0,8.072,11.431Z" transform="translate(-0.513 -0.611)" fill="#fff"/>
    <path id="Path_19269" data-name="Path 19269" d="M11.978,11.648l-1.2-4.012h.334l1.034,3.544h.029l1.037-3.544h.332l1.034,3.542H14.6l1.034-3.542h.334l-1.2,4.012h-.355L13.391,8.156h-.034l-1.024,3.492Z" transform="translate(-0.869 -0.616)" fill="#fff"/>
    <path id="Path_19270" data-name="Path 19270" d="M18.9,11.726a1.66,1.66,0,0,1-.945-.269,1.767,1.767,0,0,1-.622-.736,2.71,2.71,0,0,1,0-2.136,1.849,1.849,0,0,1,.609-.742,1.5,1.5,0,0,1,.883-.272,1.529,1.529,0,0,1,.637.136A1.563,1.563,0,0,1,20,8.093a1.81,1.81,0,0,1,.363.611,2.293,2.293,0,0,1,.133.8v.2H17.318v-.29h2.857A1.713,1.713,0,0,0,20,8.631a1.446,1.446,0,0,0-.483-.556,1.245,1.245,0,0,0-1.4.018,1.548,1.548,0,0,0-.494.6,2.025,2.025,0,0,0-.188.846v.131a2.224,2.224,0,0,0,.175.9,1.5,1.5,0,0,0,.507.629,1.342,1.342,0,0,0,.789.23,1.307,1.307,0,0,0,.562-.11,1.261,1.261,0,0,0,.384-.272,1.372,1.372,0,0,0,.225-.308l.29.118a1.466,1.466,0,0,1-.285.4,1.545,1.545,0,0,1-.486.332A1.651,1.651,0,0,1,18.9,11.726Z" transform="translate(-1.381 -0.611)" fill="#fff"/>
    <path id="Path_19271" data-name="Path 19271" d="M21.983,11.643V7.631h.311v.627h.029a1.041,1.041,0,0,1,.441-.494,1.34,1.34,0,0,1,.708-.188h.084l.078,0V7.9l-.076-.008a.582.582,0,0,0-.1-.008,1.215,1.215,0,0,0-.6.144,1.063,1.063,0,0,0-.407.4A1.1,1.1,0,0,0,22.3,9v2.643Z" transform="translate(-1.773 -0.611)" fill="#fff"/>
    <path id="Path_19272" data-name="Path 19272" d="M26.122,11.726a1.66,1.66,0,0,1-.945-.269,1.767,1.767,0,0,1-.622-.736,2.711,2.711,0,0,1,0-2.136,1.848,1.848,0,0,1,.609-.742,1.5,1.5,0,0,1,.883-.272,1.529,1.529,0,0,1,.637.136,1.563,1.563,0,0,1,.533.387,1.809,1.809,0,0,1,.363.611,2.293,2.293,0,0,1,.133.8v.2H24.537v-.29h2.857a1.712,1.712,0,0,0-.178-.786,1.446,1.446,0,0,0-.483-.556,1.245,1.245,0,0,0-1.4.018,1.548,1.548,0,0,0-.494.6,2.025,2.025,0,0,0-.188.846v.131a2.224,2.224,0,0,0,.175.9,1.5,1.5,0,0,0,.507.629,1.342,1.342,0,0,0,.789.23,1.307,1.307,0,0,0,.562-.11,1.264,1.264,0,0,0,.384-.272,1.375,1.375,0,0,0,.225-.308l.29.118a1.468,1.468,0,0,1-.285.4,1.546,1.546,0,0,1-.486.332A1.652,1.652,0,0,1,26.122,11.726Z" transform="translate(-1.963 -0.611)" fill="#fff"/>
    <path id="Path_19273" data-name="Path 19273" d="M30.559,11.614a1.38,1.38,0,0,1-.844-.266,1.726,1.726,0,0,1-.559-.734,2.784,2.784,0,0,1-.2-1.079,2.719,2.719,0,0,1,.2-1.071,1.743,1.743,0,0,1,.562-.737,1.368,1.368,0,0,1,.841-.269,1.268,1.268,0,0,1,.6.133,1.287,1.287,0,0,1,.428.347,1.6,1.6,0,0,1,.266.475h.031V6.182H32.2v5.349h-.308v-.875h-.039a1.776,1.776,0,0,1-.269.478,1.315,1.315,0,0,1-.428.35A1.3,1.3,0,0,1,30.559,11.614Zm.029-.3a1.08,1.08,0,0,0,.7-.232,1.472,1.472,0,0,0,.447-.637,2.525,2.525,0,0,0,.157-.917,2.483,2.483,0,0,0-.157-.912,1.434,1.434,0,0,0-.447-.632,1.08,1.08,0,0,0-.7-.232,1.1,1.1,0,0,0-.708.235,1.472,1.472,0,0,0-.449.635,2.75,2.75,0,0,0,0,1.815,1.508,1.508,0,0,0,.449.642A1.1,1.1,0,0,0,30.588,11.319Z" transform="translate(-2.336 -0.499)" fill="#fff"/>
    <path id="Path_19274" data-name="Path 19274" d="M36.418,11.531V6.182h.316V8.415h.031a1.684,1.684,0,0,1,.266-.475,1.271,1.271,0,0,1,1.026-.481,1.372,1.372,0,0,1,.844.269,1.725,1.725,0,0,1,.559.737,2.718,2.718,0,0,1,.2,1.071,2.751,2.751,0,0,1-.2,1.079,1.736,1.736,0,0,1-.556.734,1.373,1.373,0,0,1-.844.266,1.3,1.3,0,0,1-.6-.131,1.316,1.316,0,0,1-.428-.35,1.776,1.776,0,0,1-.269-.478h-.037v.875Zm.313-2a2.561,2.561,0,0,0,.154.917,1.49,1.49,0,0,0,.449.637,1.173,1.173,0,0,0,1.405,0,1.487,1.487,0,0,0,.447-.642,2.706,2.706,0,0,0,0-1.815,1.451,1.451,0,0,0-.447-.635,1.173,1.173,0,0,0-1.405,0,1.452,1.452,0,0,0-.449.632A2.519,2.519,0,0,0,36.731,9.533Z" transform="translate(-2.938 -0.499)" fill="#fff"/>
    <path id="Path_19275" data-name="Path 19275" d="M41.211,13.152a1.094,1.094,0,0,1-.238-.026,1.116,1.116,0,0,1-.212-.068l.094-.279a.913.913,0,0,0,.444.068.6.6,0,0,0,.355-.183,1.24,1.24,0,0,0,.261-.46l.183-.5-1.47-4.066h.342l1.274,3.6h.026l1.275-3.6h.342L42.2,12.33a1.553,1.553,0,0,1-.243.454.972.972,0,0,1-.334.274A.888.888,0,0,1,41.211,13.152Z" transform="translate(-3.277 -0.616)" fill="#fff"/>
    <path id="Path_19276" data-name="Path 19276" d="M1.84,11.531V6.182H3.488a1.721,1.721,0,0,1,.872.209,1.431,1.431,0,0,1,.562.572,1.837,1.837,0,0,1,0,1.651,1.448,1.448,0,0,1-.562.575,1.715,1.715,0,0,1-.87.209H2.07v-.3H3.483a1.4,1.4,0,0,0,.705-.167,1.159,1.159,0,0,0,.449-.462,1.533,1.533,0,0,0,0-1.35,1.132,1.132,0,0,0-.452-.462,1.4,1.4,0,0,0-.705-.167H2.166v5.046Z" transform="translate(-0.148 -0.499)" fill="none" stroke="#fff" stroke-width="0.2"/>
    <path id="Path_19277" data-name="Path 19277" d="M8.072,11.726a1.518,1.518,0,0,1-.883-.266,1.829,1.829,0,0,1-.609-.739,2.694,2.694,0,0,1,0-2.142A1.829,1.829,0,0,1,7.19,7.84a1.583,1.583,0,0,1,1.766,0,1.829,1.829,0,0,1,.609.739,2.694,2.694,0,0,1,0,2.142,1.829,1.829,0,0,1-.609.739A1.518,1.518,0,0,1,8.072,11.726Zm0-.3a1.18,1.18,0,0,0,.734-.238,1.536,1.536,0,0,0,.488-.643,2.4,2.4,0,0,0,0-1.8,1.566,1.566,0,0,0-.488-.642,1.241,1.241,0,0,0-1.468,0,1.566,1.566,0,0,0-.488.642,2.229,2.229,0,0,0-.175.9,2.277,2.277,0,0,0,.172.9,1.565,1.565,0,0,0,.488.643A1.191,1.191,0,0,0,8.072,11.431Z" transform="translate(-0.513 -0.611)" fill="none" stroke="#fff" stroke-width="0.2"/>
    <path id="Path_19278" data-name="Path 19278" d="M11.978,11.648l-1.2-4.012h.334l1.034,3.544h.029l1.037-3.544h.332l1.034,3.542H14.6l1.034-3.542h.334l-1.2,4.012h-.355L13.391,8.156h-.034l-1.024,3.492Z" transform="translate(-0.869 -0.616)" fill="none" stroke="#fff" stroke-width="0.2"/>
    <path id="Path_19279" data-name="Path 19279" d="M18.9,11.726a1.66,1.66,0,0,1-.945-.269,1.767,1.767,0,0,1-.622-.736,2.71,2.71,0,0,1,0-2.136,1.849,1.849,0,0,1,.609-.742,1.5,1.5,0,0,1,.883-.272,1.529,1.529,0,0,1,.637.136A1.563,1.563,0,0,1,20,8.093a1.81,1.81,0,0,1,.363.611,2.293,2.293,0,0,1,.133.8v.2H17.318v-.29h2.857A1.713,1.713,0,0,0,20,8.631a1.446,1.446,0,0,0-.483-.556,1.245,1.245,0,0,0-1.4.018,1.548,1.548,0,0,0-.494.6,2.025,2.025,0,0,0-.188.846v.131a2.224,2.224,0,0,0,.175.9,1.5,1.5,0,0,0,.507.629,1.342,1.342,0,0,0,.789.23,1.307,1.307,0,0,0,.562-.11,1.261,1.261,0,0,0,.384-.272,1.372,1.372,0,0,0,.225-.308l.29.118a1.466,1.466,0,0,1-.285.4,1.545,1.545,0,0,1-.486.332A1.651,1.651,0,0,1,18.9,11.726Z" transform="translate(-1.381 -0.611)" fill="none" stroke="#fff" stroke-width="0.2"/>
    <path id="Path_19280" data-name="Path 19280" d="M21.983,11.643V7.631h.311v.627h.029a1.041,1.041,0,0,1,.441-.494,1.34,1.34,0,0,1,.708-.188h.084l.078,0V7.9l-.076-.008a.582.582,0,0,0-.1-.008,1.215,1.215,0,0,0-.6.144,1.063,1.063,0,0,0-.407.4A1.1,1.1,0,0,0,22.3,9v2.643Z" transform="translate(-1.773 -0.611)" fill="none" stroke="#fff" stroke-width="0.2"/>
    <path id="Path_19281" data-name="Path 19281" d="M26.122,11.726a1.66,1.66,0,0,1-.945-.269,1.767,1.767,0,0,1-.622-.736,2.711,2.711,0,0,1,0-2.136,1.848,1.848,0,0,1,.609-.742,1.5,1.5,0,0,1,.883-.272,1.529,1.529,0,0,1,.637.136,1.563,1.563,0,0,1,.533.387,1.809,1.809,0,0,1,.363.611,2.293,2.293,0,0,1,.133.8v.2H24.537v-.29h2.857a1.712,1.712,0,0,0-.178-.786,1.446,1.446,0,0,0-.483-.556,1.245,1.245,0,0,0-1.4.018,1.548,1.548,0,0,0-.494.6,2.025,2.025,0,0,0-.188.846v.131a2.224,2.224,0,0,0,.175.9,1.5,1.5,0,0,0,.507.629,1.342,1.342,0,0,0,.789.23,1.307,1.307,0,0,0,.562-.11,1.264,1.264,0,0,0,.384-.272,1.375,1.375,0,0,0,.225-.308l.29.118a1.468,1.468,0,0,1-.285.4,1.546,1.546,0,0,1-.486.332A1.652,1.652,0,0,1,26.122,11.726Z" transform="translate(-1.963 -0.611)" fill="none" stroke="#fff" stroke-width="0.2"/>
    <path id="Path_19282" data-name="Path 19282" d="M30.559,11.614a1.38,1.38,0,0,1-.844-.266,1.726,1.726,0,0,1-.559-.734,2.784,2.784,0,0,1-.2-1.079,2.719,2.719,0,0,1,.2-1.071,1.743,1.743,0,0,1,.562-.737,1.368,1.368,0,0,1,.841-.269,1.268,1.268,0,0,1,.6.133,1.287,1.287,0,0,1,.428.347,1.6,1.6,0,0,1,.266.475h.031V6.182H32.2v5.349h-.308v-.875h-.039a1.776,1.776,0,0,1-.269.478,1.315,1.315,0,0,1-.428.35A1.3,1.3,0,0,1,30.559,11.614Zm.029-.3a1.08,1.08,0,0,0,.7-.232,1.472,1.472,0,0,0,.447-.637,2.525,2.525,0,0,0,.157-.917,2.483,2.483,0,0,0-.157-.912,1.434,1.434,0,0,0-.447-.632,1.08,1.08,0,0,0-.7-.232,1.1,1.1,0,0,0-.708.235,1.472,1.472,0,0,0-.449.635,2.75,2.75,0,0,0,0,1.815,1.508,1.508,0,0,0,.449.642A1.1,1.1,0,0,0,30.588,11.319Z" transform="translate(-2.336 -0.499)" fill="none" stroke="#fff" stroke-width="0.2"/>
    <path id="Path_19283" data-name="Path 19283" d="M36.418,11.531V6.182h.316V8.415h.031a1.684,1.684,0,0,1,.266-.475,1.271,1.271,0,0,1,1.026-.481,1.372,1.372,0,0,1,.844.269,1.725,1.725,0,0,1,.559.737,2.718,2.718,0,0,1,.2,1.071,2.751,2.751,0,0,1-.2,1.079,1.736,1.736,0,0,1-.556.734,1.373,1.373,0,0,1-.844.266,1.3,1.3,0,0,1-.6-.131,1.316,1.316,0,0,1-.428-.35,1.776,1.776,0,0,1-.269-.478h-.037v.875Zm.313-2a2.561,2.561,0,0,0,.154.917,1.49,1.49,0,0,0,.449.637,1.173,1.173,0,0,0,1.405,0,1.487,1.487,0,0,0,.447-.642,2.706,2.706,0,0,0,0-1.815,1.451,1.451,0,0,0-.447-.635,1.173,1.173,0,0,0-1.405,0,1.452,1.452,0,0,0-.449.632A2.519,2.519,0,0,0,36.731,9.533Z" transform="translate(-2.938 -0.499)" fill="none" stroke="#fff" stroke-width="0.2"/>
    <path id="Path_19284" data-name="Path 19284" d="M41.211,13.152a1.094,1.094,0,0,1-.238-.026,1.116,1.116,0,0,1-.212-.068l.094-.279a.913.913,0,0,0,.444.068.6.6,0,0,0,.355-.183,1.24,1.24,0,0,0,.261-.46l.183-.5-1.47-4.066h.342l1.274,3.6h.026l1.275-3.6h.342L42.2,12.33a1.553,1.553,0,0,1-.243.454.972.972,0,0,1-.334.274A.888.888,0,0,1,41.211,13.152Z" transform="translate(-3.277 -0.616)" fill="none" stroke="#fff" stroke-width="0.2"/>
  </g>
</svg>
