<svg xmlns="http://www.w3.org/2000/svg" width="150.333" height="43.284" viewBox="0 0 150.333 43.284">
  <g id="Nic_logo" transform="translate(-0.05 0.71)">
    <rect id="Rectangle_4759" data-name="Rectangle 4759" width="150.333" height="43.284" transform="translate(0.05 -0.71)" fill="#2483c5"/>
    <rect id="Rectangle_4760" data-name="Rectangle 4760" width="10.447" height="0.724" transform="translate(8.84 34.547)" fill="#fff"/>
    <path id="Path_19191" data-name="Path 19191" d="M61.97,232.454V231.33H72.333l.044,1.124Z" transform="translate(-53.13 -199.099)" fill="#fff"/>
    <path id="Path_19192" data-name="Path 19192" d="M61.97,213.485V211.94H72.262l.031,1.545Z" transform="translate(-53.13 -182.461)" fill="#fff"/>
    <path id="Path_19193" data-name="Path 19193" d="M61.97,189.859V187.62H72.156l.051,2.239Z" transform="translate(-53.13 -161.594)" fill="#fff"/>
    <path id="Path_19194" data-name="Path 19194" d="M61.97,158.414V154.95H91.638l.217,3.464H73.9l-2.047-3.463.25,3.463Z" transform="translate(-53.13 -133.562)" fill="#fff"/>
    <path id="Path_19195" data-name="Path 19195" d="M61.97,120.624V116.34H79.687l2.625,4.286-.247-4.286h9.79v4.284Z" transform="translate(-53.13 -100.433)" fill="#fff"/>
    <path id="Path_19196" data-name="Path 19196" d="M61.97,57.33V48.97L73.953,49l4.962,8.326Z" transform="translate(-53.13 -42.627)" fill="#fff"/>
    <rect id="Rectangle_4761" data-name="Rectangle 4761" width="9.79" height="8.362" transform="translate(28.936 6.343)" fill="#fff"/>
    <path id="Path_19197" data-name="Path 19197" d="M168.838,187.62v2.239H153.175l-1.485-2.239Z" transform="translate(-130.113 -161.594)" fill="#fff"/>
    <path id="Path_19198" data-name="Path 19198" d="M182.489,211.94v1.543H168.616L167.6,211.94Z" transform="translate(-143.764 -182.461)" fill="#fff"/>
    <path id="Path_19199" data-name="Path 19199" d="M193.464,231.33v1.124H181.127l-.737-1.124Z" transform="translate(-154.738 -199.099)" fill="#fff"/>
    <path id="Path_19200" data-name="Path 19200" d="M202.7,247.64v.724H191.641l-.481-.724Z" transform="translate(-163.979 -213.093)" fill="#fff"/>
    <rect id="Rectangle_4762" data-name="Rectangle 4762" width="10.223" height="0.724" transform="translate(41.518 34.547)" fill="#fff"/>
    <rect id="Rectangle_4763" data-name="Rectangle 4763" width="10.223" height="1.123" transform="translate(41.518 32.231)" fill="#fff"/>
    <rect id="Rectangle_4764" data-name="Rectangle 4764" width="10.223" height="1.545" transform="translate(41.518 29.479)" fill="#fff"/>
    <rect id="Rectangle_4765" data-name="Rectangle 4765" width="10.223" height="2.236" transform="translate(41.518 26.026)" fill="#fff"/>
    <rect id="Rectangle_4766" data-name="Rectangle 4766" width="10.223" height="3.464" transform="translate(41.518 21.388)" fill="#fff"/>
    <rect id="Rectangle_4767" data-name="Rectangle 4767" width="10.223" height="4.286" transform="translate(41.518 15.907)" fill="#fff"/>
    <rect id="Rectangle_4768" data-name="Rectangle 4768" width="10.223" height="8.362" transform="translate(41.518 6.343)" fill="#fff"/>
    <path id="Path_19201" data-name="Path 19201" d="M401.338,45.49h5.426v8.854H387a15.787,15.787,0,0,1,14.338-8.854" transform="translate(-332.017 -39.641)" fill="#fff"/>
    <path id="Path_19202" data-name="Path 19202" d="M389.827,116.34a5.708,5.708,0,0,0-2.043,4.284H377.49a14.713,14.713,0,0,1,.852-4.284Z" transform="translate(-323.857 -100.433)" fill="#fff"/>
    <path id="Path_19203" data-name="Path 19203" d="M388.033,154.957a5.793,5.793,0,0,0,2.034,3.457H378.252a13.923,13.923,0,0,1-.582-3.464Z" transform="translate(-324.011 -133.562)" fill="#fff"/>
    <path id="Path_19204" data-name="Path 19204" d="M404.734,187.62v2.239H385.762a13.978,13.978,0,0,1-1.122-2.239Z" transform="translate(-329.992 -161.594)" fill="#fff"/>
    <path id="Path_19205" data-name="Path 19205" d="M416.5,211.94v1.545H399.7a14.7,14.7,0,0,1-1.352-1.545Z" transform="translate(-341.756 -182.461)" fill="#fff"/>
    <path id="Path_19206" data-name="Path 19206" d="M432.791,231.33v1.124H418.953a18.432,18.432,0,0,1-1.613-1.124Z" transform="translate(-358.05 -199.099)" fill="#fff"/>
    <path id="Path_19207" data-name="Path 19207" d="M457.28,247.614v.619h-9.253s-.308.106-2.147-.623Z" transform="translate(-382.538 -213.067)" fill="#fff"/>
    <path id="Path_19208" data-name="Path 19208" d="M563.9,49.67h1.839l3.332,5.8v-5.8h1.635v8.316h-1.755l-3.417-5.9v5.9H563.9Z" transform="translate(-483.803 -43.228)" fill="#fff"/>
    <path id="Path_19209" data-name="Path 19209" d="M621.591,66.451a2.654,2.654,0,0,0,.647-.142.484.484,0,0,0,.346-.456.542.542,0,0,0-.264-.524,1.7,1.7,0,0,0-.789-.142,1.038,1.038,0,0,0-.825.284,1.154,1.154,0,0,0-.23.568h-1.562a2.342,2.342,0,0,1,.458-1.326,2.656,2.656,0,0,1,2.217-.818,3.994,3.994,0,0,1,1.819.4,1.53,1.53,0,0,1,.794,1.512v2.821c0,.2,0,.433.013.71a.871.871,0,0,0,.1.426.576.576,0,0,0,.238.185v.237h-1.77a1.8,1.8,0,0,1-.1-.351c-.018-.108-.034-.233-.045-.372a3.329,3.329,0,0,1-.778.615,2.375,2.375,0,0,1-1.194.3,2.068,2.068,0,0,1-1.4-.476,1.69,1.69,0,0,1-.554-1.352,1.746,1.746,0,0,1,.89-1.643,3.8,3.8,0,0,1,1.434-.395Zm.994.751a1.784,1.784,0,0,1-.314.155,2.5,2.5,0,0,1-.436.109l-.369.068a2.482,2.482,0,0,0-.747.22.734.734,0,0,0-.382.683.71.71,0,0,0,.234.595.882.882,0,0,0,.568.183,1.7,1.7,0,0,0,.98-.3,1.277,1.277,0,0,0,.466-1.112Z" transform="translate(-530.832 -55.434)" fill="#fff"/>
    <path id="Path_19210" data-name="Path 19210" d="M662.05,56.1V54.956h.866V53.24h1.607v1.716h1.006V56.1h-1.006v3.25c0,.253.031.41.1.471a1.086,1.086,0,0,0,.592.094h.156a1.013,1.013,0,0,0,.162-.009v1.2l-.768.027a2.086,2.086,0,0,1-1.573-.393,1.172,1.172,0,0,1-.273-.852V56.1Z" transform="translate(-568.02 -46.291)" fill="#fff"/>
    <path id="Path_19211" data-name="Path 19211" d="M696.3,50.794H694.65V49.31H696.3Zm-1.647.734H696.3v6.15H694.65Z" transform="translate(-595.992 -42.919)" fill="#fff"/>
    <path id="Path_19212" data-name="Path 19212" d="M717.951,69.176a3.447,3.447,0,0,1-4.773,0,3.793,3.793,0,0,1,0-4.621,3.407,3.407,0,0,1,4.773,0,3.793,3.793,0,0,1,0,4.621m-1.3-.89a2.324,2.324,0,0,0,.38-1.42,2.3,2.3,0,0,0-.38-1.42,1.452,1.452,0,0,0-2.192,0,2.821,2.821,0,0,0,0,2.839,1.45,1.45,0,0,0,2.192,0" transform="translate(-611.215 -55.163)" fill="#fff"/>
    <path id="Path_19213" data-name="Path 19213" d="M769.514,64.378a2.026,2.026,0,0,1,.61,1.655v4.143H768.46V66.435a1.712,1.712,0,0,0-.128-.745.917.917,0,0,0-.906-.473,1.12,1.12,0,0,0-1.124.693,2.393,2.393,0,0,0-.152.937v3.329h-1.63v-6.14h1.573v.9a2.7,2.7,0,0,1,.589-.683,2.054,2.054,0,0,1,1.265-.372,2.4,2.4,0,0,1,1.562.5" transform="translate(-655.942 -55.418)" fill="#fff"/>
    <path id="Path_19214" data-name="Path 19214" d="M813.719,66.485a2.637,2.637,0,0,0,.647-.142.484.484,0,0,0,.351-.457.539.539,0,0,0-.268-.522,1.7,1.7,0,0,0-.788-.142,1.034,1.034,0,0,0-.825.284,1.156,1.156,0,0,0-.231.568h-1.562a2.341,2.341,0,0,1,.457-1.326,2.68,2.68,0,0,1,2.219-.812,3.975,3.975,0,0,1,1.818.4,1.534,1.534,0,0,1,.8,1.512v2.815c0,.2,0,.433.01.71a.908.908,0,0,0,.1.426.592.592,0,0,0,.24.185v.237h-1.769a1.721,1.721,0,0,1-.1-.351c-.018-.108-.033-.233-.045-.372a3.356,3.356,0,0,1-.778.615,2.361,2.361,0,0,1-1.191.3,2.071,2.071,0,0,1-1.4-.476,1.686,1.686,0,0,1-.552-1.351,1.747,1.747,0,0,1,.889-1.643,3.794,3.794,0,0,1,1.434-.395Zm.994.751a1.8,1.8,0,0,1-.315.155,2.51,2.51,0,0,1-.434.109l-.37.068a2.47,2.47,0,0,0-.743.22.734.734,0,0,0-.382.683.71.71,0,0,0,.233.595.889.889,0,0,0,.568.183,1.7,1.7,0,0,0,.98-.3,1.277,1.277,0,0,0,.466-1.112Z" transform="translate(-695.687 -55.467)" fill="#fff"/>
    <rect id="Rectangle_4769" data-name="Rectangle 4769" width="1.624" height="8.316" transform="translate(121.978 6.442)" fill="#fff"/>
    <rect id="Rectangle_4770" data-name="Rectangle 4770" width="1.742" height="8.315" transform="translate(79.983 16.198)" fill="#fff"/>
    <path id="Path_19215" data-name="Path 19215" d="M590.254,133.073a2.023,2.023,0,0,1,.609,1.655v4.147H589.2V135.13a1.7,1.7,0,0,0-.131-.745.917.917,0,0,0-.9-.474,1.123,1.123,0,0,0-1.126.7,2.38,2.38,0,0,0-.158.936v3.333h-1.62v-6.143h1.572v.89a2.738,2.738,0,0,1,.591-.681,2.039,2.039,0,0,1,1.262-.372,2.4,2.4,0,0,1,1.57.5" transform="translate(-502.131 -114.357)" fill="#fff"/>
    <path id="Path_19216" data-name="Path 19216" d="M633.254,117.773l.338.021V119.1c-.091-.011-.243-.02-.457-.026a.527.527,0,0,0-.444.142.509.509,0,0,0-.122.329v.517h1.065V121.2h-1.065v4.969h-1.607V121.2h-.911v-1.136h.887v-.393a2.054,2.054,0,0,1,.336-1.361c.234-.368.8-.551,1.7-.551h.284" transform="translate(-540.562 -101.651)" fill="#fff"/>
    <path id="Path_19217" data-name="Path 19217" d="M663.939,137.853a3.438,3.438,0,0,1-4.771,0,3.784,3.784,0,0,1,0-4.618,3.406,3.406,0,0,1,4.771,0,3.788,3.788,0,0,1,0,4.618m-1.3-.887a2.314,2.314,0,0,0,.382-1.42,2.289,2.289,0,0,0-.382-1.42,1.452,1.452,0,0,0-2.191,0,2.821,2.821,0,0,0,0,2.839,1.448,1.448,0,0,0,2.191,0" transform="translate(-564.871 -114.093)" fill="#fff"/>
    <path id="Path_19218" data-name="Path 19218" d="M713.775,132.61l.142.01v1.647c-.1-.011-.193-.02-.273-.023s-.142,0-.193,0a1.351,1.351,0,0,0-1.316.632,2.429,2.429,0,0,0-.187,1.095v2.939H710.31v-6.156h1.55v1.073a3.421,3.421,0,0,1,.653-.84,1.8,1.8,0,0,1,1.187-.378h.075" transform="translate(-609.428 -114.39)" fill="#fff"/>
    <path id="Path_19219" data-name="Path 19219" d="M749.154,132.819a1.81,1.81,0,0,1,.723.552,1.757,1.757,0,0,1,.352.791,5.222,5.222,0,0,1,.057.907l-.016,3.881h-1.658v-3.92a1.277,1.277,0,0,0-.114-.576.813.813,0,0,0-.8-.426.934.934,0,0,0-.928.552,1.711,1.711,0,0,0-.131.71v3.66h-1.634v-3.666a2.026,2.026,0,0,0-.115-.8.8.8,0,0,0-.8-.446.946.946,0,0,0-.933.446,1.675,1.675,0,0,0-.131.755v3.707H741.38v-6.143h1.576v.89a2.605,2.605,0,0,1,.568-.681,2.271,2.271,0,0,1,2.375-.051,1.812,1.812,0,0,1,.535.738,2.057,2.057,0,0,1,.792-.8,2.446,2.446,0,0,1,1.115-.253,2.2,2.2,0,0,1,.811.158" transform="translate(-636.088 -114.432)" fill="#fff"/>
    <path id="Path_19220" data-name="Path 19220" d="M813.719,135.213a2.555,2.555,0,0,0,.647-.142.484.484,0,0,0,.351-.457.538.538,0,0,0-.268-.521,1.721,1.721,0,0,0-.788-.142,1.024,1.024,0,0,0-.825.284,1.145,1.145,0,0,0-.231.568h-1.562a2.341,2.341,0,0,1,.457-1.326,2.68,2.68,0,0,1,2.219-.812,3.975,3.975,0,0,1,1.818.4,1.535,1.535,0,0,1,.8,1.512V137.4c0,.2,0,.426.01.71a.9.9,0,0,0,.1.426.594.594,0,0,0,.243.185v.241h-1.772a1.707,1.707,0,0,1-.1-.349c-.018-.109-.033-.233-.045-.372a3.356,3.356,0,0,1-.778.615,2.375,2.375,0,0,1-1.191.3,2.071,2.071,0,0,1-1.4-.476,1.689,1.689,0,0,1-.552-1.353,1.744,1.744,0,0,1,.889-1.641,4.024,4.024,0,0,1,1.434-.4Zm.994.75a1.71,1.71,0,0,1-.315.156,2.949,2.949,0,0,1-.434.111l-.37.067a2.429,2.429,0,0,0-.743.22.733.733,0,0,0-.382.683.71.71,0,0,0,.233.595.9.9,0,0,0,.568.183,1.7,1.7,0,0,0,.98-.305,1.275,1.275,0,0,0,.466-1.11Z" transform="translate(-695.687 -114.44)" fill="#fff"/>
    <path id="Path_19221" data-name="Path 19221" d="M854.18,124.855V123.7h.866V122h1.606v1.7h1.007v1.146h-1.007V128.1a.723.723,0,0,0,.1.471,1.066,1.066,0,0,0,.591.094h.158a1.014,1.014,0,0,0,.162-.009v1.2l-.768.027a2.072,2.072,0,0,1-1.572-.395,1.163,1.163,0,0,1-.273-.852v-3.789Z" transform="translate(-732.874 -105.29)" fill="#fff"/>
    <path id="Path_19222" data-name="Path 19222" d="M888.425,119.488H886.78V118h1.645Zm-1.645.733h1.645v6.156H886.78Z" transform="translate(-760.846 -101.857)" fill="#fff"/>
    <path id="Path_19223" data-name="Path 19223" d="M908.82,134.972a1.377,1.377,0,0,0-.236-.62.98.98,0,0,0-.852-.373,1.118,1.118,0,0,0-1.124.806,3.289,3.289,0,0,0-.16,1.136,3.037,3.037,0,0,0,.16,1.089,1.085,1.085,0,0,0,1.1.767.974.974,0,0,0,.809-.3,1.493,1.493,0,0,0,.284-.791h1.675a2.67,2.67,0,0,1-.537,1.388,2.611,2.611,0,0,1-2.261,1.055,2.656,2.656,0,0,1-2.2-.88,3.526,3.526,0,0,1-.71-2.283,3.581,3.581,0,0,1,.781-2.462,2.738,2.738,0,0,1,2.155-.88,3.269,3.269,0,0,1,1.912.518,2.406,2.406,0,0,1,.88,1.834Z" transform="translate(-776.273 -114.402)" fill="#fff"/>
    <path id="Path_19224" data-name="Path 19224" d="M950.974,136.738a1.061,1.061,0,0,0,.224.609,1.517,1.517,0,0,0,1.12.321,1.734,1.734,0,0,0,.764-.142.45.45,0,0,0,.284-.426.457.457,0,0,0-.227-.413,9.261,9.261,0,0,0-1.7-.486,3.567,3.567,0,0,1-1.492-.647,1.4,1.4,0,0,1-.426-1.107,1.91,1.91,0,0,1,.676-1.464,2.733,2.733,0,0,1,1.9-.613,3.523,3.523,0,0,1,1.9.46,1.962,1.962,0,0,1,.842,1.587h-1.624a.945.945,0,0,0-.176-.49,1.122,1.122,0,0,0-.916-.327,1.324,1.324,0,0,0-.755.163.47.47,0,0,0-.226.385.417.417,0,0,0,.24.4,10.349,10.349,0,0,0,1.7.446,3.109,3.109,0,0,1,1.454.683,1.551,1.551,0,0,1,.478,1.157,1.863,1.863,0,0,1-.689,1.493,3.272,3.272,0,0,1-2.129.578,3.222,3.222,0,0,1-2.164-.612,1.979,1.979,0,0,1-.7-1.562Z" transform="translate(-814.512 -114.187)" fill="#fff"/>
    <path id="Path_19225" data-name="Path 19225" d="M562.654,189.516a3.937,3.937,0,0,1,5.643.351,2.966,2.966,0,0,1,.576,1.552H567.12a2.378,2.378,0,0,0-.426-.9,1.746,1.746,0,0,0-1.39-.542,1.716,1.716,0,0,0-1.479.765,3.705,3.705,0,0,0-.541,2.164,3.271,3.271,0,0,0,.568,2.1,1.8,1.8,0,0,0,1.451.7,1.652,1.652,0,0,0,1.377-.6,2.654,2.654,0,0,0,.426-.964h1.742a3.722,3.722,0,0,1-1.15,2.21,3.378,3.378,0,0,1-2.376.852,3.58,3.58,0,0,1-2.817-1.15,5.416,5.416,0,0,1,.142-6.529" transform="translate(-481.727 -162.34)" fill="#fff"/>
    <path id="Path_19226" data-name="Path 19226" d="M622.764,204.021a2.527,2.527,0,0,1,1.073.91,3,3,0,0,1,.494,1.271,8.035,8.035,0,0,1,.054,1.222h-4.521a1.475,1.475,0,0,0,.649,1.3,1.659,1.659,0,0,0,.9.23,1.255,1.255,0,0,0,1.235-.71H624.3a2.012,2.012,0,0,1-.6,1.113,3.035,3.035,0,0,1-2.335.9,3.414,3.414,0,0,1-2.188-.757,2.956,2.956,0,0,1-.948-2.456,3.32,3.32,0,0,1,.852-2.45,3,3,0,0,1,2.222-.852,3.594,3.594,0,0,1,1.459.284m-2.428,1.388a1.67,1.67,0,0,0-.426.953h2.8a1.33,1.33,0,0,0-.426-.97,1.427,1.427,0,0,0-.964-.334,1.3,1.3,0,0,0-.968.351" transform="translate(-530.42 -175.423)" fill="#fff"/>
    <path id="Path_19227" data-name="Path 19227" d="M671.614,204.326a2.028,2.028,0,0,1,.61,1.658v4.141h-1.662v-3.741a1.7,1.7,0,0,0-.131-.745.914.914,0,0,0-.9-.474,1.124,1.124,0,0,0-1.126.694,2.388,2.388,0,0,0-.158.937v3.329H666.62v-6.14h1.573v.9a2.7,2.7,0,0,1,.589-.683,2.049,2.049,0,0,1,1.265-.372,2.376,2.376,0,0,1,1.562.5" transform="translate(-571.941 -175.5)" fill="#fff"/>
    <path id="Path_19228" data-name="Path 19228" d="M711.41,196.041v-1.146h.866V193.18h1.606v1.715h1.008v1.146h-1.008v3.25a.731.731,0,0,0,.1.471,1.078,1.078,0,0,0,.592.094h.158a1.014,1.014,0,0,0,.162-.009v1.2l-.769.027a2.085,2.085,0,0,1-1.572-.395,1.169,1.169,0,0,1-.273-.852v-3.789Z" transform="translate(-610.372 -166.365)" fill="#fff"/>
    <path id="Path_19229" data-name="Path 19229" d="M745.8,203.83a1.412,1.412,0,0,1,.142.007v1.65c-.1-.013-.195-.02-.274-.023s-.142-.007-.194-.007a1.353,1.353,0,0,0-1.315.633,2.439,2.439,0,0,0-.189,1.095v2.94H742.34v-6.151h1.547v1.072a3.339,3.339,0,0,1,.656-.839,1.788,1.788,0,0,1,1.184-.378h.077" transform="translate(-636.911 -175.5)" fill="#fff"/>
    <path id="Path_19230" data-name="Path 19230" d="M774.666,204.021a2.506,2.506,0,0,1,1.072.91,2.982,2.982,0,0,1,.5,1.271,7.88,7.88,0,0,1,.054,1.222h-4.52a1.472,1.472,0,0,0,.647,1.3,1.662,1.662,0,0,0,.9.23,1.374,1.374,0,0,0,.9-.284,1.351,1.351,0,0,0,.335-.426H776.2a1.988,1.988,0,0,1-.6,1.113,3.027,3.027,0,0,1-2.335.9,3.417,3.417,0,0,1-2.186-.757,2.956,2.956,0,0,1-.948-2.456,3.32,3.32,0,0,1,.852-2.45,2.994,2.994,0,0,1,2.219-.852,3.6,3.6,0,0,1,1.461.284m-2.42,1.388a1.672,1.672,0,0,0-.433.953h2.8a1.326,1.326,0,0,0-.426-.97,1.419,1.419,0,0,0-.962-.334,1.3,1.3,0,0,0-.968.351" transform="translate(-660.756 -175.422)" fill="#fff"/>
  </g>
</svg>
